<?xml version="1.0" standalone="no"?>
<!DOCTYPE svg PUBLIC "-//W3C//DTD SVG 20010904//EN"
 "http://www.w3.org/TR/2001/REC-SVG-20010904/DTD/svg10.dtd">
<svg version="1.0" xmlns="http://www.w3.org/2000/svg"
 width="400.000000pt" height="200.000000pt" viewBox="0 0 400.000000 200.000000"
 preserveAspectRatio="xMidYMid meet">

<g transform="translate(0.000000,200.000000) scale(0.100000,-0.100000)"
fill="#000000" stroke="none">
<path d="M3148 1723 c-23 -25 -32 -57 -73 -278 -26 -137 -49 -256 -51 -264
-10 -32 -26 16 -79 237 -30 128 -62 246 -70 262 -36 69 -155 52 -155 -22 0
-16 24 -154 54 -306 30 -152 57 -293 60 -313 6 -32 1 -46 -35 -99 -74 -112
-81 -149 -54 -282 34 -162 95 -271 189 -335 l50 -34 196 3 197 3 36 28 c21 16
49 52 64 80 27 52 27 53 36 372 l8 320 -26 22 c-19 17 -39 23 -74 23 -44 0
-49 3 -55 26 -8 32 -65 58 -108 48 l-31 -6 6 63 c3 35 17 136 31 224 32 197
32 200 1 230 -34 35 -83 34 -117 -2z m83 -24 c17 -9 19 -17 15 -47 -27 -180
-76 -513 -76 -522 0 -5 -13 -10 -30 -10 -16 0 -41 -5 -55 -12 -40 -18 -45 -62
46 412 23 122 34 159 50 173 25 20 25 20 50 6z m-393 -36 c7 -14 137 -539 145
-587 2 -7 -80 -35 -105 -36 -5 0 -8 10 -8 22 0 12 -25 149 -56 305 -31 155
-54 289 -50 298 8 21 63 20 74 -2z m477 -497 c21 -15 21 -21 6 -240 -7 -107
-10 -121 -30 -138 -29 -23 -43 -23 -71 0 l-22 18 13 169 c10 139 15 171 31
187 22 22 47 23 73 4z m159 -85 c15 -16 16 -32 11 -107 -3 -49 -8 -99 -11
-111 -9 -45 -81 -55 -103 -15 -12 23 3 218 19 237 17 21 64 19 84 -4z m-304
-56 c0 -27 -55 -77 -119 -109 -117 -59 -141 -97 -103 -162 30 -53 115 -154
129 -154 23 0 14 35 -19 80 -92 120 -94 127 -50 158 22 16 111 65 145 80 4 2
7 -28 7 -66 0 -66 2 -72 31 -96 18 -15 43 -26 60 -26 34 0 85 24 91 42 3 9 25
13 66 13 l62 0 0 -142 c0 -118 -3 -151 -20 -196 -39 -103 -74 -120 -261 -125
-164 -5 -200 4 -273 68 -71 63 -139 240 -140 365 -1 67 1 73 49 149 l51 80 99
31 c55 17 114 39 130 48 29 15 31 15 48 -5 9 -11 17 -26 17 -33z"/>
<path d="M1949 1681 c-24 -25 -29 -37 -29 -81 l0 -51 -44 6 c-53 8 -102 -14
-116 -51 -6 -14 -10 -104 -10 -201 0 -163 -1 -175 -17 -167 -10 4 -35 9 -56
12 -47 5 -72 -15 -82 -65 -3 -19 -22 -71 -42 -115 -42 -96 -41 -117 17 -279
46 -133 95 -221 163 -295 82 -90 95 -94 343 -94 202 0 213 1 255 23 59 31 95
88 108 168 14 82 15 888 1 923 -17 45 -73 63 -140 45 -12 -3 -16 11 -18 75 -3
90 -18 120 -67 136 -26 9 -41 8 -67 -3 -33 -14 -35 -13 -66 14 -44 40 -93 39
-133 0z m99 -27 c22 -15 22 -16 22 -333 0 -271 2 -320 15 -331 12 -10 18 -10
30 0 13 11 15 58 15 314 0 222 3 305 12 314 20 20 76 15 88 -7 6 -12 10 -135
10 -331 0 -279 2 -311 16 -317 37 -14 44 21 44 233 0 171 2 205 16 218 21 22
50 20 74 -4 19 -19 20 -33 20 -422 0 -435 -7 -523 -44 -579 -42 -62 -69 -69
-285 -69 -216 0 -240 5 -304 68 -78 75 -167 254 -207 418 -12 48 -11 54 15
110 15 32 35 84 44 114 18 59 45 76 78 49 29 -25 33 -56 17 -142 -20 -101 -14
-165 16 -189 51 -41 50 -46 50 347 0 352 1 366 20 385 25 25 41 25 70 2 21
-17 21 -23 21 -243 -1 -177 2 -229 13 -244 12 -16 16 -17 30 -6 14 12 16 51
16 322 0 307 0 308 22 323 12 9 27 16 33 16 6 0 21 -7 33 -16z"/>
<path d="M695 1283 c-22 -23 -36 -28 -75 -28 -69 0 -100 -31 -100 -97 0 -26
-3 -48 -6 -48 -3 0 -17 9 -31 20 -29 23 -81 26 -105 8 -9 -7 -23 -39 -32 -70
-9 -32 -30 -86 -46 -122 -17 -35 -30 -74 -30 -87 0 -12 14 -67 31 -123 57
-184 148 -328 255 -402 l56 -39 165 -3 c195 -4 215 -1 276 39 100 66 118 160
114 581 l-2 266 -24 26 c-20 22 -33 26 -77 26 -43 0 -55 4 -64 20 -16 29 -81
46 -119 30 -26 -10 -32 -9 -52 9 -34 32 -99 29 -134 -6z m109 -29 c24 -23 24
-405 0 -428 -20 -21 -53 -20 -76 1 -16 15 -18 35 -18 214 0 214 4 229 55 229
13 0 31 -7 39 -16z m144 -20 c21 -15 22 -20 22 -209 0 -182 -1 -195 -19 -205
-32 -17 -60 -12 -76 14 -14 21 -16 53 -13 206 3 166 5 183 22 196 25 18 36 18
64 -2z m-293 -36 c14 -13 19 -312 5 -337 -12 -24 -68 -29 -88 -9 -8 8 -12 61
-12 174 0 157 1 163 22 178 22 16 53 13 73 -6z m453 -20 c8 -8 12 -58 12 -160
l0 -148 -25 -12 c-19 -8 -31 -8 -50 0 l-25 12 0 148 c0 102 4 152 12 160 15
15 61 15 76 0z m-648 -88 c24 -24 25 -62 5 -145 -18 -73 -19 -136 -3 -170 9
-20 26 -30 82 -46 83 -24 139 -55 180 -98 31 -33 66 -41 66 -16 0 40 -123 130
-202 149 -45 10 -36 35 11 29 21 -3 47 -1 57 5 15 8 25 6 43 -9 27 -22 87 -25
126 -7 19 9 28 9 37 0 21 -21 94 -14 123 11 22 18 35 21 81 19 l55 -4 -3 -156
c-3 -148 -5 -160 -31 -214 -46 -93 -69 -102 -263 -106 -127 -3 -168 0 -197 12
-121 50 -230 209 -292 425 l-27 91 40 93 c22 50 43 107 47 125 8 38 34 43 65
12z m49 -242 c0 -50 -2 -58 -10 -40 -8 21 -2 102 7 102 2 0 4 -28 3 -62z"/>
</g>
</svg>
